<svg id="Layer_1" data-name="Layer 1" xmlns="http://www.w3.org/2000/svg" viewBox="0 0 673.5 443.92"><defs><style>.cls-1,.cls-2{fill:#fff;}.cls-1{fill-rule:evenodd;}</style></defs><path class="cls-1" d="M674.6,809.3l30.7,40.8,8.4,11.2,23,30.7,3.3,4.3h0l52.6,69.9,26.3,35,36.8,49,8.8,11.7a15.15,15.15,0,0,1-.2,18.4l-32.8,42-66.6-52.1,27-34.4a21.1,21.1,0,0,0-32.4-27l-.1-.2L674,1118l-66.6-52.1,99.5-127.1h0l5.9-7.5a21.09,21.09,0,0,0-32.2-27.2l-.1-.1L576.9,1036.2,529,1097.4l-66.4-52.3L647.3,809a17.31,17.31,0,0,1,24.2-3A19.28,19.28,0,0,1,674.6,809.3Z" transform="translate(-345.8 -802.38)"/><path class="cls-2" d="M345.8,1239.8v-80.5a6.62,6.62,0,0,1,1.7-4.5,5.6,5.6,0,0,1,4.2-1.8h25.9a7.43,7.43,0,0,1,4.7,1.8,8.68,8.68,0,0,1,3,4.3l18.8,55.4,18.8-55.4a8.68,8.68,0,0,1,3-4.3,7.43,7.43,0,0,1,4.7-1.8h25.9a5.6,5.6,0,0,1,4.2,1.8,6.62,6.62,0,0,1,1.7,4.5v80.5a5.88,5.88,0,0,1-1.8,4.4,5.6,5.6,0,0,1-4.2,1.8H444.9a5.6,5.6,0,0,1-4.2-1.8,6.2,6.2,0,0,1-1.8-4.4v-63.4l-22.5,63.8a9,9,0,0,1-3.1,4.1,7.33,7.33,0,0,1-4.7,1.7h-9.1a7.33,7.33,0,0,1-4.7-1.7,10.65,10.65,0,0,1-3.2-4.1l-22.4-63.8v63.4a5.88,5.88,0,0,1-1.8,4.4,5.6,5.6,0,0,1-4.2,1.8H351.7a5.82,5.82,0,0,1-4.3-1.8A6.78,6.78,0,0,1,345.8,1239.8Z" transform="translate(-345.8 -802.38)"/><path class="cls-2" d="M470.8,1241.3l12.4-48.1c3.4-13.1,14.4-19.7,32.9-19.7h26.7a3.75,3.75,0,0,1,3,1.4,5,5,0,0,1,1.2,3.3v63.1a4.53,4.53,0,0,1-1.4,3.3,4.22,4.22,0,0,1-3.3,1.3H533a4.45,4.45,0,0,1-4.6-4.7v-12.7H493.2l-3.3,12.7a6.52,6.52,0,0,1-5.9,4.8h-9.8a3.25,3.25,0,0,1-2.8-1.1,3.18,3.18,0,0,1-.8-2A4.4,4.4,0,0,1,470.8,1241.3Zm26-27.1h31.6v-26.4H514.3a13.12,13.12,0,0,0-8.3,2.7,13.53,13.53,0,0,0-4.8,7.4Z" transform="translate(-345.8 -802.38)"/><path class="cls-2" d="M555.2,1183.1v-4.8a4.67,4.67,0,0,1,1.3-3.4,4.76,4.76,0,0,1,3.4-1.4h62.9a4.76,4.76,0,0,1,3.4,1.4,4.44,4.44,0,0,1,1.3,3.4v4.8a4.67,4.67,0,0,1-1.3,3.4,4.3,4.3,0,0,1-3.4,1.3H600.7v53.5a4.71,4.71,0,0,1-1.4,3.3,4.22,4.22,0,0,1-3.3,1.3h-9.4a5.07,5.07,0,0,1-3.3-1.3,4.71,4.71,0,0,1-1.4-3.3v-53.5H559.8a4.67,4.67,0,0,1-3.4-1.3A5.23,5.23,0,0,1,555.2,1183.1Z" transform="translate(-345.8 -802.38)"/><path class="cls-2" d="M629.5,1183.1v-4.8a4.67,4.67,0,0,1,1.3-3.4,4.76,4.76,0,0,1,3.4-1.4h62.9a4.76,4.76,0,0,1,3.4,1.4,4.44,4.44,0,0,1,1.3,3.4v4.8a4.67,4.67,0,0,1-1.3,3.4,4.3,4.3,0,0,1-3.4,1.3H675v53.5a4.71,4.71,0,0,1-1.4,3.3,4.22,4.22,0,0,1-3.3,1.3H661a5.07,5.07,0,0,1-3.3-1.3,4.71,4.71,0,0,1-1.4-3.3v-53.5H634.2a4.67,4.67,0,0,1-3.4-1.3A5.33,5.33,0,0,1,629.5,1183.1Z" transform="translate(-345.8 -802.38)"/><path class="cls-2" d="M710,1241.1v-62.9a4.37,4.37,0,0,1,1.4-3.3,4.71,4.71,0,0,1,3.3-1.4h57.2a4.37,4.37,0,0,1,3.3,1.4,4.76,4.76,0,0,1,1.4,3.4v4.8a4.76,4.76,0,0,1-1.4,3.4,4.71,4.71,0,0,1-3.3,1.4H728.7v14.7h37.2a4.71,4.71,0,0,1,3.3,1.4,4.76,4.76,0,0,1,1.4,3.4v4.8a4.76,4.76,0,0,1-1.4,3.4,4.71,4.71,0,0,1-3.3,1.4H728.7v14.9h43.1a4.31,4.31,0,0,1,3.2,1.4,4.22,4.22,0,0,1,1.3,3.3v4.8a4.76,4.76,0,0,1-1.4,3.4,4.71,4.71,0,0,1-3.3,1.4H714.7a4.37,4.37,0,0,1-3.3-1.4A5.37,5.37,0,0,1,710,1241.1Z" transform="translate(-345.8 -802.38)"/><path class="cls-2" d="M859.5,1243.8c0,1.4-.8,2.2-2.5,2.2H845.1a8.38,8.38,0,0,1-4.1-1.4,10.34,10.34,0,0,1-3.5-3.4l-8.5-13.4c-3.5-5.5-7.7-8.3-12.6-8.3H804.3v21.7a4.6,4.6,0,0,1-1.3,3.3,4.53,4.53,0,0,1-3.3,1.4h-9.3a4.78,4.78,0,0,1-4.8-4.8v-62.9a5.13,5.13,0,0,1,1.3-3.4,4.37,4.37,0,0,1,3.3-1.4h40.9c7.6,0,13.8,2.1,18.6,6.2s7.3,9.7,7.3,16.8c0,9.8-6.2,15.9-18.7,18.4a14,14,0,0,1,5.5,3.8,50.16,50.16,0,0,1,5.8,7.9l9,14.6A7.18,7.18,0,0,1,859.5,1243.8Zm-55.2-38.6h21.1a17.81,17.81,0,0,0,9-2.1,7.45,7.45,0,0,0,2.9-10.3,7.35,7.35,0,0,0-2.9-2.9,20.16,20.16,0,0,0-9-2.1H804.3Z" transform="translate(-345.8 -802.38)"/><path class="cls-2" d="M867.7,1239.8V1159a5.82,5.82,0,0,1,1.8-4.3,6.22,6.22,0,0,1,4.3-1.8h73.4a5.6,5.6,0,0,1,4.2,1.8,6.41,6.41,0,0,1,1.8,4.3v6.1a5.82,5.82,0,0,1-1.8,4.3,5.6,5.6,0,0,1-4.2,1.8H891.7V1194h45.2a5.6,5.6,0,0,1,4.2,1.8,6.22,6.22,0,0,1,1.8,4.3v6.2a5.82,5.82,0,0,1-1.8,4.3,5.6,5.6,0,0,1-4.2,1.8H891.7v27.3a5.88,5.88,0,0,1-1.8,4.4,5.6,5.6,0,0,1-4.2,1.8h-12a5.82,5.82,0,0,1-4.3-1.8A6.13,6.13,0,0,1,867.7,1239.8Z" transform="translate(-345.8 -802.38)"/><path class="cls-2" d="M965.6,1241.3v-63.4a4.76,4.76,0,0,1,1.4-3.4,4.71,4.71,0,0,1,3.3-1.4h9.2a4.78,4.78,0,0,1,4.8,4.8v63.3a4.8,4.8,0,0,1-4.8,4.8h-9.2a5.07,5.07,0,0,1-3.3-1.3A4.07,4.07,0,0,1,965.6,1241.3Z" transform="translate(-345.8 -802.38)"/><path class="cls-2" d="M1005.4,1235.5v1.8h-3.5v9h-2.2v-9h-3.5v-1.8Zm11.7,10.8-.4-6.4c0-.8,0-1.9-.1-3h-.1c-.3,1-.6,2.2-.9,3.2l-1.9,6h-2.2l-2-6.2c-.2-.8-.5-2.1-.8-3.1h-.1c0,1,0,2-.1,3l-.4,6.4h-2l.8-10.8h3.2l1.9,5.3c.2.8.4,1.6.7,2.7h0c.3-1,.5-1.9.8-2.7l1.9-5.3h3.1l.8,10.8Z" transform="translate(-345.8 -802.38)"/></svg>