<svg id="Layer_1" data-name="Layer 1" xmlns="http://www.w3.org/2000/svg" viewBox="0 0 673.5 444"><defs><style>.cls-1{fill-rule:evenodd;}.cls-2{fill:#4d4d4d;}</style></defs><path class="cls-1" d="M674.6,2420.9l30.7,40.8,8.4,11.2,23,30.7,3.3,4.3h0l52.6,69.9,26.3,35,36.8,49,8.8,11.7a15.15,15.15,0,0,1-.2,18.4l-32.8,41.9-66.6-52.1,27-34.4a21.1,21.1,0,0,0-32.4-27l-.1-.1-85.6,109.4-66.6-52.1,99.5-127.1h0l5.9-7.5a21.07,21.07,0,0,0-32.1-27.3h0l-.1-.1L576.9,2647.9,529,2709l-66.4-52.3,184.7-236.1a17.2,17.2,0,0,1,24.2-2.9A15.68,15.68,0,0,1,674.6,2420.9Z" transform="translate(-345.8 -2414)"/><path d="M345.8,2851.4v-80.5a6.62,6.62,0,0,1,1.7-4.5,5.6,5.6,0,0,1,4.2-1.8h25.9a7.43,7.43,0,0,1,4.7,1.8,8.52,8.52,0,0,1,3,4.4l18.8,55.4,18.8-55.4a9.41,9.41,0,0,1,3-4.4,7.43,7.43,0,0,1,4.7-1.8h25.9a5.6,5.6,0,0,1,4.2,1.8,6.62,6.62,0,0,1,1.7,4.5v80.5a5.88,5.88,0,0,1-1.8,4.4,5.6,5.6,0,0,1-4.2,1.8H444.9a5.6,5.6,0,0,1-4.2-1.8,6.2,6.2,0,0,1-1.8-4.4V2788l-22.5,63.8a9,9,0,0,1-3.1,4.1,7.33,7.33,0,0,1-4.7,1.7h-9.1a7.33,7.33,0,0,1-4.7-1.7,10.65,10.65,0,0,1-3.2-4.1L369.2,2788v63.4a5.88,5.88,0,0,1-1.8,4.4,5.6,5.6,0,0,1-4.2,1.8H351.7a5.82,5.82,0,0,1-4.3-1.8A6.78,6.78,0,0,1,345.8,2851.4Z" transform="translate(-345.8 -2414)"/><path d="M470.8,2852.9l12.4-48.1c3.4-13.1,14.4-19.7,32.9-19.7h26.7a3.75,3.75,0,0,1,3,1.4,5,5,0,0,1,1.2,3.3v63.1a4.53,4.53,0,0,1-1.4,3.3,4.22,4.22,0,0,1-3.3,1.3H533a4.45,4.45,0,0,1-4.6-4.7v-12.7H493.2l-3.3,12.7a5.67,5.67,0,0,1-2.2,3.4,5.41,5.41,0,0,1-3.7,1.3h-9.8a3.25,3.25,0,0,1-2.8-1.1,3.18,3.18,0,0,1-.8-2A8.87,8.87,0,0,1,470.8,2852.9Zm26-27.1h31.6v-26.4H514.3a12.65,12.65,0,0,0-8.3,2.8,13.53,13.53,0,0,0-4.8,7.4Z" transform="translate(-345.8 -2414)"/><path d="M555.2,2794.7v-4.8a4.67,4.67,0,0,1,1.3-3.4,4.76,4.76,0,0,1,3.4-1.4h62.9a4.76,4.76,0,0,1,3.4,1.4,4.44,4.44,0,0,1,1.3,3.4v4.8a4.67,4.67,0,0,1-1.3,3.4,4.3,4.3,0,0,1-3.4,1.3H600.7v53.5a4.71,4.71,0,0,1-1.4,3.3,4.22,4.22,0,0,1-3.3,1.3h-9.4a5.07,5.07,0,0,1-3.3-1.3,4.71,4.71,0,0,1-1.4-3.3v-53.5H559.8a4.57,4.57,0,0,1-4.7-4.4.37.37,0,0,0,.1-.3Z" transform="translate(-345.8 -2414)"/><path d="M629.5,2794.7v-4.8a4.67,4.67,0,0,1,1.3-3.4,4.76,4.76,0,0,1,3.4-1.4h62.9a4.76,4.76,0,0,1,3.4,1.4,4.44,4.44,0,0,1,1.3,3.4v4.8a4.57,4.57,0,0,1-4.4,4.7H675v53.5a4.71,4.71,0,0,1-1.4,3.3,4.22,4.22,0,0,1-3.3,1.3H661a5.07,5.07,0,0,1-3.3-1.3,4.71,4.71,0,0,1-1.4-3.3v-53.5H634.2a4.67,4.67,0,0,1-3.4-1.3A5.13,5.13,0,0,1,629.5,2794.7Z" transform="translate(-345.8 -2414)"/><path d="M710,2852.8v-62.9a4.37,4.37,0,0,1,1.4-3.3,4.71,4.71,0,0,1,3.3-1.4h57.2a4.53,4.53,0,0,1,3.3,1.4,4.76,4.76,0,0,1,1.4,3.4v4.8a4.76,4.76,0,0,1-1.4,3.4,4.71,4.71,0,0,1-3.3,1.4H728.7v14.7h37.2a4.71,4.71,0,0,1,3.3,1.4,4.76,4.76,0,0,1,1.4,3.4v4.8a4.76,4.76,0,0,1-1.4,3.4,4.71,4.71,0,0,1-3.3,1.4H728.7v14.9h43.1a4.31,4.31,0,0,1,3.2,1.4,4.22,4.22,0,0,1,1.3,3.3v4.9a4.76,4.76,0,0,1-1.4,3.4,4.71,4.71,0,0,1-3.3,1.4H714.7a4.37,4.37,0,0,1-3.3-1.4A6.87,6.87,0,0,1,710,2852.8Z" transform="translate(-345.8 -2414)"/><path d="M859.5,2855.4c0,1.4-.8,2.2-2.5,2.2H845.1a8.38,8.38,0,0,1-4.1-1.4,10.34,10.34,0,0,1-3.5-3.4l-8.5-13.4c-3.5-5.5-7.7-8.3-12.6-8.3H804.3v21.7a4.76,4.76,0,0,1-1.4,3.4,4.53,4.53,0,0,1-3.3,1.4h-9.3a4.72,4.72,0,0,1-4.7-4.8v-62.9a4.76,4.76,0,0,1,1.4-3.4,4.37,4.37,0,0,1,3.3-1.4h40.9c7.6,0,13.8,2.1,18.6,6.2s7.3,9.7,7.3,16.8c0,9.8-6.2,16-18.7,18.4a14,14,0,0,1,5.5,3.8,50.16,50.16,0,0,1,5.8,7.9l9,14.6A6.07,6.07,0,0,1,859.5,2855.4Zm-55.2-38.6h21.1a17.81,17.81,0,0,0,9-2.1,7.45,7.45,0,0,0,2.9-10.3,7.35,7.35,0,0,0-2.9-2.9,20.16,20.16,0,0,0-9-2.1H804.3Z" transform="translate(-345.8 -2414)"/><path d="M867.7,2851.4v-80.8a5.82,5.82,0,0,1,1.8-4.3,6.22,6.22,0,0,1,4.3-1.8h73.4a5.6,5.6,0,0,1,4.2,1.8,6.47,6.47,0,0,1,1.8,4.4v6.1a5.82,5.82,0,0,1-1.8,4.3,5.6,5.6,0,0,1-4.2,1.8H891.7v22.9h45.2a5.6,5.6,0,0,1,4.2,1.8,6.22,6.22,0,0,1,1.8,4.3v6.2a5.82,5.82,0,0,1-1.8,4.3,5.6,5.6,0,0,1-4.2,1.8H891.7v27.3a5.88,5.88,0,0,1-1.8,4.4,5.6,5.6,0,0,1-4.2,1.8h-12a5.82,5.82,0,0,1-4.3-1.8A7,7,0,0,1,867.7,2851.4Z" transform="translate(-345.8 -2414)"/><path d="M965.6,2852.9v-63.4a4.76,4.76,0,0,1,1.4-3.4,4.71,4.71,0,0,1,3.3-1.4h9.2a4.78,4.78,0,0,1,4.8,4.8v63.3a4.8,4.8,0,0,1-4.8,4.8h-9.2a4.71,4.71,0,0,1-3.3-1.4A3.77,3.77,0,0,1,965.6,2852.9Z" transform="translate(-345.8 -2414)"/><path class="cls-2" d="M1005.4,2847.1v1.8h-3.5v9h-2.2v-9h-3.5v-1.8Zm11.7,10.8-.4-6.4c0-.8,0-1.9-.1-3h-.1c-.3,1-.6,2.2-.9,3.2l-1.9,6h-2.2l-2-6.2c-.2-.8-.5-2.1-.8-3.1h-.1c0,1,0,2-.1,3l-.4,6.4h-2l.8-10.8h3.2l1.9,5.3.7,2.8h0c.3-1,.5-1.9.8-2.7l1.9-5.3h3.1l.8,10.8Z" transform="translate(-345.8 -2414)"/></svg>