<svg id="Layer_1" data-name="Layer 1" xmlns="http://www.w3.org/2000/svg" xmlns:xlink="http://www.w3.org/1999/xlink" viewBox="0 0 673.33 443.86"><defs><style>.cls-1{fill-rule:evenodd;fill:url(#linear-gradient);}.cls-2{fill:#4d4d4d;}.cls-3{fill:#005b97;}</style><linearGradient id="linear-gradient" x1="473.34" y1="2302.7" x2="878.41" y2="2302.7" gradientTransform="matrix(1, 0, 0, -1, 0, 2695.55)" gradientUnits="userSpaceOnUse"><stop offset="0" stop-color="#cce0f4"/><stop offset="0.06" stop-color="#c3dcf2"/><stop offset="0.17" stop-color="#a9d2ee"/><stop offset="0.31" stop-color="#80c2e7"/><stop offset="0.46" stop-color="#47acde"/><stop offset="0.57" stop-color="#1e9cd7"/><stop offset="0.87" stop-color="#0075be"/><stop offset="0.99" stop-color="#005b97"/></linearGradient></defs><path class="cls-1" d="M685.4,239.83l30.67,40.77,8.42,11.19,23,30.68,3.32,4.32h0l52.61,69.92,26.31,35,36.83,49,8.81,11.7a15.11,15.11,0,0,1-.17,18.39l-32.83,41.95-66.56-52.08,27-34.42a21.08,21.08,0,0,0-32.36-27l-.12-.15-85.6,109.4-66.57-52.08,99.45-127.1h0l5.89-7.52a21.11,21.11,0,1,0-32.2-27.3l-.09-.12L587.66,466.69l-47.9,61.25-66.42-52.28L658,239.57a17.24,17.24,0,0,1,24.2-3A16.91,16.91,0,0,1,685.4,239.83Z" transform="translate(-356.58 -232.95)"/><path class="cls-2" d="M356.58,670.29v-80.5a6.32,6.32,0,0,1,1.72-4.48,5.56,5.56,0,0,1,4.2-1.81h25.91a7.33,7.33,0,0,1,4.71,1.81,8.83,8.83,0,0,1,3,4.35l18.78,55.4,18.78-55.4a8.83,8.83,0,0,1,3-4.35,7.37,7.37,0,0,1,4.71-1.81H467.3a5.46,5.46,0,0,1,4.17,1.81,6.35,6.35,0,0,1,1.69,4.48v80.5a6.12,6.12,0,0,1-1.75,4.44,5.7,5.7,0,0,1-4.24,1.78H455.69a5.73,5.73,0,0,1-4.23-1.78,6.12,6.12,0,0,1-1.75-4.44V606.91l-22.47,63.77a9.29,9.29,0,0,1-3.12,4.12,7.62,7.62,0,0,1-4.71,1.71h-9.1a7.48,7.48,0,0,1-4.68-1.71,9.88,9.88,0,0,1-3.16-4.12l-22.4-63.77v63.38a6.12,6.12,0,0,1-1.75,4.44,5.7,5.7,0,0,1-4.24,1.78H362.63a5.84,5.84,0,0,1-4.27-1.78A6,6,0,0,1,356.58,670.29Z" transform="translate(-356.58 -232.95)"/><path class="cls-2" d="M481.52,671.87,494,623.76q5.07-19.65,32.93-19.7h26.73a3.83,3.83,0,0,1,3,1.41,4.85,4.85,0,0,1,1.21,3.29v63.11a4.4,4.4,0,0,1-1.38,3.31,4.63,4.63,0,0,1-3.33,1.33H543.8a4.53,4.53,0,0,1-3.35-1.33,4.73,4.73,0,0,1-1.31-3.42V659H503.93l-3.32,12.73a6,6,0,0,1-2.23,3.42,5.89,5.89,0,0,1-3.62,1.32H485a3.25,3.25,0,0,1-2.78-1.13,3.43,3.43,0,0,1-.82-2A8.36,8.36,0,0,1,481.52,671.87Zm26.08-27.14h31.59V618.36H525.06a13.15,13.15,0,0,0-8.31,2.75,13.54,13.54,0,0,0-4.79,7.4Z" transform="translate(-356.58 -232.95)"/><path class="cls-2" d="M566,613.61v-4.75a4.7,4.7,0,0,1,1.34-3.44,4.51,4.51,0,0,1,3.37-1.36h62.93a4.48,4.48,0,0,1,3.37,1.36,4.7,4.7,0,0,1,1.34,3.44v4.75a4.57,4.57,0,0,1-4.4,4.75H611.49v53.51a4.45,4.45,0,0,1-1.36,3.31,4.56,4.56,0,0,1-3.3,1.33h-9.37a4.59,4.59,0,0,1-3.3-1.33,4.53,4.53,0,0,1-1.36-3.31V618.36H570.68a4.59,4.59,0,0,1-4.71-4.45v-.3Z" transform="translate(-356.58 -232.95)"/><path class="cls-2" d="M640.3,613.61v-4.75a4.78,4.78,0,0,1,1.34-3.44,4.51,4.51,0,0,1,3.37-1.36h62.93a4.5,4.5,0,0,1,3.38,1.36,4.73,4.73,0,0,1,1.33,3.44v4.75a4.57,4.57,0,0,1-4.38,4.75H685.83v53.51a4.43,4.43,0,0,1-1.37,3.31,4.56,4.56,0,0,1-3.3,1.33h-9.4a4.59,4.59,0,0,1-3.3-1.33,4.53,4.53,0,0,1-1.36-3.31V618.36H645a4.59,4.59,0,0,1-4.71-4.45Z" transform="translate(-356.58 -232.95)"/><path class="cls-2" d="M720.76,671.66v-62.9a4.68,4.68,0,0,1,4.71-4.7h57.17a4.39,4.39,0,0,1,3.3,1.41,4.68,4.68,0,0,1,1.37,3.39v4.75a4.61,4.61,0,0,1-1.37,3.36,4.46,4.46,0,0,1-3.3,1.39H739.43v14.7h37.19a4.41,4.41,0,0,1,3.3,1.39,4.6,4.6,0,0,1,1.36,3.36v4.75a4.6,4.6,0,0,1-1.36,3.36,4.41,4.41,0,0,1-3.3,1.39H739.43v14.9h43.1a4.35,4.35,0,0,1,3.22,1.37,4.56,4.56,0,0,1,1.34,3.33v4.85a4.6,4.6,0,0,1-1.39,3.37,4.52,4.52,0,0,1-3.32,1.38H725.45a4.55,4.55,0,0,1-3.33-1.38A4.73,4.73,0,0,1,720.76,671.66Z" transform="translate(-356.58 -232.95)"/><path class="cls-2" d="M870.25,674.34c0,1.45-.84,2.17-2.53,2.17h-11.9a8.08,8.08,0,0,1-4.14-1.38,10.2,10.2,0,0,1-3.45-3.37l-8.47-13.44Q834.57,650,827.17,650h-12.1v21.72a4.63,4.63,0,0,1-1.37,3.37,4.43,4.43,0,0,1-3.29,1.38h-9.33a4.52,4.52,0,0,1-3.32-1.38,4.58,4.58,0,0,1-1.39-3.37v-62.9a4.75,4.75,0,0,1,1.39-3.36,4.33,4.33,0,0,1,3.27-1.41h40.91q11.37,0,18.62,6.21t7.27,16.78q0,14.7-18.69,18.44a14.54,14.54,0,0,1,5.5,3.81,53.65,53.65,0,0,1,5.8,7.86l9,14.6A5.4,5.4,0,0,1,870.25,674.34Zm-55.14-38.6h21.12a18.75,18.75,0,0,0,9-2.07,7.57,7.57,0,0,0,0-13.24,18.75,18.75,0,0,0-9-2.07H815.11Z" transform="translate(-356.58 -232.95)"/><path class="cls-3" d="M878.48,670.28V589.5a5.81,5.81,0,0,1,1.78-4.28,5.91,5.91,0,0,1,4.27-1.75H958a5.66,5.66,0,0,1,4.24,1.81,6,6,0,0,1,1.75,4.35v6.1a5.92,5.92,0,0,1-1.75,4.32,5.7,5.7,0,0,1-4.24,1.78H902.49v22.85h45.16a5.66,5.66,0,0,1,4.24,1.81,6,6,0,0,1,1.75,4.29v6.16a5.92,5.92,0,0,1-1.75,4.32,5.75,5.75,0,0,1-4.24,1.79H902.49V670.3a6.06,6.06,0,0,1-1.75,4.45,5.72,5.72,0,0,1-4.23,1.78h-12a5.84,5.84,0,0,1-4.27-1.78A6.1,6.1,0,0,1,878.48,670.28Z" transform="translate(-356.58 -232.95)"/><path class="cls-3" d="M976.32,671.84V608.41A4.72,4.72,0,0,1,977.7,605a4.47,4.47,0,0,1,3.33-1.42h9.22a4.49,4.49,0,0,1,3.4,1.42,4.77,4.77,0,0,1,1.36,3.41v63.32a4.78,4.78,0,0,1-4.76,4.78H981a4.63,4.63,0,0,1-3.33-1.34A4.54,4.54,0,0,1,976.32,671.84Z" transform="translate(-356.58 -232.95)"/><path d="M1016.14,666v1.79h-3.46v9h-2.15v-9h-3.46V666Zm11.68,10.81-.4-6.36c0-.83,0-1.87-.07-3h-.12c-.28,1-.6,2.23-.92,3.22l-1.94,6h-2.23l-2-6.16c-.2-.83-.52-2.11-.76-3.06h-.11c0,1,0,2-.08,3l-.4,6.36h-2l.8-10.81h3.2l1.88,5.29c.23.83.43,1.63.71,2.74h0c.28-1,.52-1.91.75-2.7L1026,666h3.1l.83,10.81Z" transform="translate(-356.58 -232.95)"/></svg>